<?xml version="1.0" encoding="UTF-8" standalone="no"?>
<svg
   id="color"
   enable-background="new 0 0 24 24"
   height="512"
   viewBox="0 0 203.65663 24"
   width="4344.6748"
   version="1.1"
   sodipodi:docname="logo-white.svg"
   inkscape:version="1.1 (c68e22c387, 2021-05-23)"
   xmlns:inkscape="http://www.inkscape.org/namespaces/inkscape"
   xmlns:sodipodi="http://sodipodi.sourceforge.net/DTD/sodipodi-0.dtd"
   xmlns="http://www.w3.org/2000/svg"
   xmlns:svg="http://www.w3.org/2000/svg">
  <defs
     id="defs35" />
  <sodipodi:namedview
     id="namedview33"
     pagecolor="#ffffff"
     bordercolor="#666666"
     borderopacity="1.0"
     inkscape:pageshadow="2"
     inkscape:pageopacity="0.0"
     inkscape:pagecheckerboard="0"
     showgrid="false"
     width="4344.675px"
     inkscape:zoom="0.60742188"
     inkscape:cx="1207.5627"
     inkscape:cy="432.97749"
     inkscape:window-width="1920"
     inkscape:window-height="1043"
     inkscape:window-x="1600"
     inkscape:window-y="0"
     inkscape:window-maximized="1"
     inkscape:current-layer="g13750" />
  <g
     id="g13750">
    <g
       id="g13714"
       transform="translate(0,0.285172)">
      <path
         d="m 18,7 c -0.256,0 -0.512,-0.098 -0.707,-0.293 -0.391,-0.391 -0.391,-1.023 0,-1.414 l 2.121,-2.121 c 0.391,-0.391 1.023,-0.391 1.414,0 0.391,0.391 0.391,1.023 0,1.414 L 18.707,6.707 C 18.512,6.902 18.256,7 18,7 Z"
         fill="#ffc107"
         id="path2" />
      <path
         d="m 23,13 h -1.25 c -0.553,0 -1,-0.448 -1,-1 0,-0.552 0.447,-1 1,-1 H 23 c 0.553,0 1,0.448 1,1 0,0.552 -0.447,1 -1,1 z"
         fill="#ffc107"
         id="path4" />
      <path
         d="M 18.25,19.5 H 5.75 C 5.336,19.5 5,19.164 5,18.75 V 14 c 0,-3.86 3.141,-7 7,-7 3.859,0 7,3.14 7,7 v 4.75 c 0,0.414 -0.336,0.75 -0.75,0.75 z"
         fill="#f44336"
         id="path6" />
      <path
         d="M 8,15 C 7.447,15 7,14.552 7,14 7,11.243 9.243,9 12,9 c 0.553,0 1,0.448 1,1 0,0.552 -0.447,1 -1,1 -1.654,0 -3,1.346 -3,3 0,0.552 -0.447,1 -1,1 z"
         fill="#ffffff"
         id="path8" />
      <g
         fill="#ffc107"
         id="g16">
        <path
           d="M 12,5 C 11.447,5 11,4.552 11,4 V 1 c 0,-0.552 0.447,-1 1,-1 0.553,0 1,0.448 1,1 v 3 c 0,0.552 -0.447,1 -1,1 z"
           id="path10" />
        <path
           d="M 6,7 C 5.744,7 5.488,6.902 5.293,6.707 L 3.172,4.586 c -0.391,-0.391 -0.391,-1.023 0,-1.414 0.391,-0.391 1.023,-0.391 1.414,0 l 2.121,2.121 c 0.391,0.391 0.391,1.023 0,1.414 C 6.512,6.902 6.256,7 6,7 Z"
           id="path12" />
        <path
           d="M 2,13 H 1 C 0.447,13 0,12.552 0,12 0,11.448 0.447,11 1,11 h 1 c 0.553,0 1,0.448 1,1 0,0.552 -0.447,1 -1,1 z"
           id="path14" />
      </g>
      <path
         d="M 22.25,24 H 1.75 C 0.785,24 0,23.215 0,22.25 v -2.5 C 0,18.785 0.785,18 1.75,18 h 20.5 c 0.965,0 1.75,0.785 1.75,1.75 v 2.5 C 24,23.215 23.215,24 22.25,24 Z"
         fill="#607d8b"
         id="path18" />
      <path
         d="M 12,7 C 8.141,7 5,10.14 5,14 v 4 h 7 V 11 C 10.346,11 9,12.346 9,14 9,14.552 8.553,15 8,15 7.447,15 7,14.552 7,14 7,11.243 9.243,9 12,9 Z"
         fill="#d43a2f"
         id="path20" />
      <path
         d="m 12,9 c -2.757,0 -5,2.243 -5,5 0,0.552 0.447,1 1,1 0.553,0 1,-0.448 1,-1 0,-1.654 1.346,-3 3,-3 z"
         fill="#dedede"
         id="path22" />
      <path
         d="m 12,0 c -0.553,0 -1,0.448 -1,1 v 3 c 0,0.552 0.447,1 1,1 z"
         fill="#dea806"
         id="path24" />
      <path
         d="m 3.879,2.879 c -0.256,0 -0.512,0.098 -0.707,0.293 -0.391,0.391 -0.391,1.023 0,1.414 L 5.293,6.707 C 5.488,6.902 5.744,7 6,7 6.256,7 6.512,6.902 6.707,6.707 7.098,6.316 7.098,5.684 6.707,5.293 L 4.586,3.172 C 4.391,2.977 4.135,2.879 3.879,2.879 Z"
         fill="#dea806"
         id="path26" />
      <path
         d="M 2,11 H 1 c -0.553,0 -1,0.448 -1,1 0,0.552 0.447,1 1,1 H 2 C 2.553,13 3,12.552 3,12 3,11.448 2.553,11 2,11 Z"
         fill="#dea806"
         id="path28" />
      <path
         d="M 12,18 H 5 1.75 C 0.785,18 0,18.785 0,19.75 v 2.5 C 0,23.215 0.785,24 1.75,24 H 12 Z"
         fill="#546d79"
         id="path30" />
    </g>
    <g
       aria-label="Denuncia ciudadana"
       id="text1843"
       style="font-size:23.7643px;line-height:1.25;fill:#ffffff;stroke-width:0.594103;fill-opacity:1;stroke:none"
       transform="translate(-0.415655,0.54951135)">
      <path
         d="m 40.574418,12.555529 q 0,2.305137 -0.49905,3.921109 -0.475286,1.592208 -1.402094,2.590309 -0.903043,0.9981 -2.21008,1.449622 -1.283272,0.451522 -2.87548,0.451522 -1.615972,0 -3.422059,-0.427758 V 4.5707242 q 0.903043,-0.1901144 1.758558,-0.3089359 0.855515,-0.1188215 1.639737,-0.1188215 1.615972,0 2.899244,0.4515217 1.307037,0.4515216 2.21008,1.4496222 0.926808,0.9981006 1.402094,2.614073 0.49905,1.5922083 0.49905,3.8973453 z m -2.281373,0 q 0,-1.758558 -0.261407,-2.994302 Q 37.770231,8.3254835 37.223652,7.5412616 36.677073,6.7570397 35.77403,6.4005752 34.894751,6.0441107 33.659007,6.0441107 q -0.3327,0 -0.6654,0.023764 -0.3327,0.023764 -0.689165,0.071293 V 18.97189 q 0.356465,0.04753 0.689165,0.07129 0.3327,0.02376 0.641636,0.02376 1.259508,0 2.138787,-0.356465 0.879279,-0.356464 1.425858,-1.116922 0.570343,-0.784222 0.83175,-2.019965 0.261407,-1.235744 0.261407,-3.018066 z"
         style="font-family:'Ubuntu Condensed';-inkscape-font-specification:'Ubuntu Condensed, ';fill:#ffffff;fill-opacity:1;stroke:none"
         id="path13499" />
      <path
         d="m 45.137123,15.169602 q 0.02376,0.903043 0.166351,1.663501 0.142585,0.736693 0.451521,1.307036 0.3327,0.546579 0.855515,0.855515 0.546579,0.308936 1.378329,0.308936 0.689165,0 1.259508,-0.190115 0.594108,-0.213878 0.855515,-0.356464 l 0.380229,1.639737 q -0.308936,0.213878 -1.045629,0.451521 -0.712929,0.261408 -1.71103,0.261408 -1.307036,0 -2.21008,-0.475286 -0.879279,-0.475286 -1.449622,-1.330801 -0.546579,-0.855515 -0.784222,-2.04373 -0.237643,-1.188215 -0.237643,-2.614073 0,-3.445823 1.140686,-5.0380314 1.140687,-1.592208 3.018066,-1.592208 2.115023,0 2.994302,1.592208 0.879279,1.5922084 0.879279,4.4676884 0,0.261407 0,0.546579 0,0.261407 -0.02376,0.546579 z m 2.067494,-5.4182606 q -1.021864,0 -1.49715,1.0218646 -0.451522,1.021865 -0.546579,2.732895 h 3.778523 q 0,-1.734794 -0.356464,-2.732895 -0.356465,-1.0218646 -1.37833,-1.0218646 z"
         style="font-family:'Ubuntu Condensed';-inkscape-font-specification:'Ubuntu Condensed, ';fill:#ffffff;fill-opacity:1;stroke:none"
         id="path13501" />
      <path
         d="m 54.096238,8.681948 q 0.879279,-0.2614073 1.901144,-0.4277574 1.021865,-0.1901144 1.877379,-0.1901144 0.926808,0 1.687266,0.2614073 0.760457,0.237643 1.283272,0.8317504 0.546579,0.5941075 0.83175,1.6159721 0.308936,0.998101 0.308936,2.495252 v 7.533283 h -2.04373 v -7.366933 q 0,-1.853616 -0.475286,-2.70913 -0.475286,-0.8555151 -1.782322,-0.8555151 -0.689165,0 -1.54468,0.2376431 v 10.693935 h -2.043729 z"
         style="font-family:'Ubuntu Condensed';-inkscape-font-specification:'Ubuntu Condensed, ';fill:#ffffff;fill-opacity:1;stroke:none"
         id="path13503" />
      <path
         d="m 73.273992,20.445276 q -0.308936,0.118822 -0.760457,0.237643 -0.427758,0.09506 -0.926808,0.16635 -0.475286,0.09506 -0.974336,0.142586 -0.475286,0.07129 -0.879279,0.07129 -0.974337,0 -1.782323,-0.237643 Q 67.142803,20.611626 66.57246,20.041283 66.002117,19.47094 65.693181,18.496604 65.384245,17.498503 65.384245,16.001352 V 8.3254835 h 2.04373 v 7.6045755 q 0,1.829851 0.546578,2.590309 0.570344,0.736693 1.71103,0.736693 0.380229,0 0.760458,-0.02376 0.380228,-0.04753 0.784221,-0.16635 V 8.3254835 h 2.04373 z"
         style="font-family:'Ubuntu Condensed';-inkscape-font-specification:'Ubuntu Condensed, ';fill:#ffffff;fill-opacity:1;stroke:none"
         id="path13505" />
      <path
         d="m 76.957448,8.681948 q 0.879279,-0.2614073 1.901144,-0.4277574 1.021864,-0.1901144 1.877379,-0.1901144 0.926808,0 1.687265,0.2614073 0.760458,0.237643 1.283273,0.8317504 0.546579,0.5941075 0.83175,1.6159721 0.308936,0.998101 0.308936,2.495252 v 7.533283 h -2.04373 v -7.366933 q 0,-1.853616 -0.475286,-2.70913 -0.475286,-0.8555151 -1.782322,-0.8555151 -0.689165,0 -1.54468,0.2376431 v 10.693935 h -2.043729 z"
         style="font-family:'Ubuntu Condensed';-inkscape-font-specification:'Ubuntu Condensed, ';fill:#ffffff;fill-opacity:1;stroke:none"
         id="path13507" />
      <path
         d="m 92.214089,21.110677 q -1.283272,0 -2.138787,-0.499051 -0.855515,-0.49905 -1.402094,-1.354565 -0.522814,-0.879279 -0.760457,-2.067494 -0.213879,-1.188215 -0.213879,-2.590308 0,-3.089359 1.116922,-4.8241533 1.140686,-1.7585581 3.422059,-1.7585581 0.689165,0 1.235744,0.1663501 0.546579,0.1663501 1.021865,0.4277574 L 93.972647,10.29792 Q 93.235954,9.8226343 92.33291,9.8226343 q -1.283272,0 -1.901144,1.1644507 -0.594107,1.164451 -0.594107,3.612174 0,1.021864 0.118821,1.901143 0.118822,0.855515 0.403993,1.473387 0.308936,0.617872 0.784222,0.974336 0.499051,0.356465 1.259508,0.356465 0.522815,0 0.926808,-0.118822 0.427757,-0.142586 0.807986,-0.356464 l 0.451522,1.592208 q -0.380229,0.261407 -1.021865,0.475286 -0.617872,0.213879 -1.354565,0.213879 z"
         style="font-family:'Ubuntu Condensed';-inkscape-font-specification:'Ubuntu Condensed, ';fill:#ffffff;fill-opacity:1;stroke:none"
         id="path13509" />
      <path
         d="m 98.844302,20.801741 h -2.04373 V 8.3254835 h 2.04373 z M 97.822437,6.1154036 q -0.546579,0 -0.950572,-0.3564645 -0.380229,-0.3802288 -0.380229,-0.9981005 0,-0.6178718 0.380229,-0.9743363 0.403993,-0.3802288 0.950572,-0.3802288 0.546579,0 0.926808,0.3802288 0.403993,0.3564645 0.403993,0.9743363 0,0.6178717 -0.403993,0.9981005 -0.380229,0.3564645 -0.926808,0.3564645 z"
         style="font-family:'Ubuntu Condensed';-inkscape-font-specification:'Ubuntu Condensed, ';fill:#ffffff;fill-opacity:1;stroke:none"
         id="path13511" />
      <path
         d="m 102.74161,8.5868908 q 0.61787,-0.2614073 1.30704,-0.4039931 0.68916,-0.1663501 1.49715,-0.1663501 1.6635,0 2.70913,1.0456291 1.04563,1.0218653 1.04563,3.2081803 v 8.269976 q -0.85552,0.237643 -1.75856,0.380229 -0.87928,0.142586 -1.7348,0.142586 -0.85551,0 -1.61597,-0.213879 -0.73669,-0.213878 -1.30703,-0.689164 -0.54658,-0.475286 -0.87928,-1.188215 -0.3327,-0.736694 -0.3327,-1.782323 0,-0.974336 0.28517,-1.687265 0.30893,-0.736693 0.83175,-1.211979 0.52281,-0.499051 1.23574,-0.736694 0.71293,-0.261407 1.54468,-0.261407 0.78422,0 1.7348,0.190114 V 12.34165 q 0,-1.378329 -0.54658,-1.924908 -0.52282,-0.5465791 -1.52092,-0.5465791 -0.54658,0 -1.04563,0.1188215 -0.47528,0.095058 -1.02186,0.3327006 z m 0.97434,8.5789122 q 0,1.093158 0.57034,1.615972 0.57034,0.522815 1.61597,0.522815 0.64164,0 1.4021,-0.16635 v -3.968638 q -0.71293,-0.190115 -1.4021,-0.190115 -0.45152,0 -0.85551,0.118822 -0.404,0.09506 -0.71293,0.356464 -0.28517,0.237643 -0.45152,0.665401 -0.16635,0.403993 -0.16635,1.045629 z"
         style="font-family:'Ubuntu Condensed';-inkscape-font-specification:'Ubuntu Condensed, ';fill:#ffffff;fill-opacity:1;stroke:none"
         id="path13513" />
      <path
         d="m 121.30148,21.110677 q -1.28328,0 -2.13879,-0.499051 -0.85552,-0.49905 -1.40209,-1.354565 -0.52282,-0.879279 -0.76046,-2.067494 -0.21388,-1.188215 -0.21388,-2.590308 0,-3.089359 1.11692,-4.8241533 1.14069,-1.7585581 3.42206,-1.7585581 0.68916,0 1.23574,0.1663501 0.54658,0.1663501 1.02187,0.4277574 l -0.52282,1.6872649 q -0.73669,-0.4752857 -1.63973,-0.4752857 -1.28327,0 -1.90115,1.1644507 -0.5941,1.164451 -0.5941,3.612174 0,1.021864 0.11882,1.901143 0.11882,0.855515 0.40399,1.473387 0.30894,0.617872 0.78422,0.974336 0.49905,0.356465 1.25951,0.356465 0.52281,0 0.92681,-0.118822 0.42776,-0.142586 0.80798,-0.356464 l 0.45153,1.592208 q -0.38023,0.261407 -1.02187,0.475286 -0.61787,0.213879 -1.35456,0.213879 z"
         style="font-family:'Ubuntu Condensed';-inkscape-font-specification:'Ubuntu Condensed, ';fill:#ffffff;fill-opacity:1;stroke:none"
         id="path13515" />
      <path
         d="m 127.93169,20.801741 h -2.04373 V 8.3254835 h 2.04373 z M 126.90982,6.1154036 q -0.54657,0 -0.95057,-0.3564645 -0.38023,-0.3802288 -0.38023,-0.9981005 0,-0.6178718 0.38023,-0.9743363 0.404,-0.3802288 0.95057,-0.3802288 0.54658,0 0.92681,0.3802288 0.40399,0.3564645 0.40399,0.9743363 0,0.6178717 -0.40399,0.9981005 -0.38023,0.3564645 -0.92681,0.3564645 z"
         style="font-family:'Ubuntu Condensed';-inkscape-font-specification:'Ubuntu Condensed, ';fill:#ffffff;fill-opacity:1;stroke:none"
         id="path13517" />
      <path
         d="m 139.36229,20.445276 q -0.30894,0.118822 -0.76046,0.237643 -0.42776,0.09506 -0.92681,0.16635 -0.47528,0.09506 -0.97433,0.142586 -0.47529,0.07129 -0.87928,0.07129 -0.97434,0 -1.78233,-0.237643 -0.80798,-0.213879 -1.37833,-0.784222 -0.57034,-0.570343 -0.87927,-1.544679 -0.30894,-0.998101 -0.30894,-2.495252 V 8.3254835 h 2.04373 v 7.6045755 q 0,1.829851 0.54658,2.590309 0.57034,0.736693 1.71103,0.736693 0.38023,0 0.76046,-0.02376 0.38022,-0.04753 0.78422,-0.16635 V 8.3254835 h 2.04373 z"
         style="font-family:'Ubuntu Condensed';-inkscape-font-specification:'Ubuntu Condensed, ';fill:#ffffff;fill-opacity:1;stroke:none"
         id="path13519" />
      <path
         d="m 148.41647,10.202863 q -0.68917,-0.3802287 -1.47339,-0.3802287 -0.59411,0 -1.04563,0.2376427 -0.45152,0.237643 -0.78422,0.784222 -0.30894,0.546579 -0.47529,1.449622 -0.16635,0.903044 -0.16635,2.233845 0,2.566544 0.6654,3.683466 0.68917,1.093158 2.0675,1.093158 0.2614,0 0.57034,-0.02377 0.30894,-0.04753 0.64164,-0.142585 z m 0,-7.4857542 2.04373,-0.3564645 V 20.46904 q -0.6654,0.285172 -1.52092,0.451522 -0.85551,0.190115 -1.73479,0.190115 -2.56655,0 -3.731,-1.639737 -1.14068,-1.639737 -1.14068,-4.942974 0,-1.497151 0.23764,-2.685366 0.26141,-1.211979 0.78422,-2.04373 0.54658,-0.8555148 1.37833,-1.3070364 0.83175,-0.475286 1.97244,-0.475286 0.54658,0 0.9268,0.1188215 0.404,0.095057 0.78423,0.2851716 z"
         style="font-family:'Ubuntu Condensed';-inkscape-font-specification:'Ubuntu Condensed, ';fill:#ffffff;fill-opacity:1;stroke:none"
         id="path13521" />
      <path
         d="m 154.33376,8.5868908 q 0.61787,-0.2614073 1.30703,-0.4039931 0.68917,-0.1663501 1.49715,-0.1663501 1.66351,0 2.70913,1.0456291 1.04563,1.0218653 1.04563,3.2081803 v 8.269976 q -0.85551,0.237643 -1.75855,0.380229 -0.87928,0.142586 -1.7348,0.142586 -0.85551,0 -1.61597,-0.213879 -0.73669,-0.213878 -1.30704,-0.689164 -0.54658,-0.475286 -0.87928,-1.188215 -0.3327,-0.736694 -0.3327,-1.782323 0,-0.974336 0.28518,-1.687265 0.30893,-0.736693 0.83175,-1.211979 0.52281,-0.499051 1.23574,-0.736694 0.71293,-0.261407 1.54468,-0.261407 0.78422,0 1.73479,0.190114 V 12.34165 q 0,-1.378329 -0.54658,-1.924908 -0.52281,-0.5465791 -1.52091,-0.5465791 -0.54658,0 -1.04563,0.1188215 -0.47529,0.095058 -1.02187,0.3327006 z m 0.97433,8.5789122 q 0,1.093158 0.57035,1.615972 0.57034,0.522815 1.61597,0.522815 0.64164,0 1.40209,-0.16635 v -3.968638 q -0.71293,-0.190115 -1.40209,-0.190115 -0.45152,0 -0.85552,0.118822 -0.40399,0.09506 -0.71292,0.356464 -0.28518,0.237643 -0.45153,0.665401 -0.16635,0.403993 -0.16635,1.045629 z"
         style="font-family:'Ubuntu Condensed';-inkscape-font-specification:'Ubuntu Condensed, ';fill:#ffffff;fill-opacity:1;stroke:none"
         id="path13523" />
      <path
         d="m 169.82804,10.202863 q -0.68916,-0.3802287 -1.47338,-0.3802287 -0.59411,0 -1.04563,0.2376427 -0.45153,0.237643 -0.78423,0.784222 -0.30893,0.546579 -0.47528,1.449622 -0.16635,0.903044 -0.16635,2.233845 0,2.566544 0.6654,3.683466 0.68916,1.093158 2.06749,1.093158 0.26141,0 0.57035,-0.02377 0.30893,-0.04753 0.64163,-0.142585 z m 0,-7.4857542 2.04373,-0.3564645 V 20.46904 q -0.6654,0.285172 -1.52091,0.451522 -0.85552,0.190115 -1.7348,0.190115 -2.56654,0 -3.73099,-1.639737 -1.14069,-1.639737 -1.14069,-4.942974 0,-1.497151 0.23764,-2.685366 0.26141,-1.211979 0.78423,-2.04373 0.54658,-0.8555148 1.37833,-1.3070364 0.83175,-0.475286 1.97243,-0.475286 0.54658,0 0.92681,0.1188215 0.40399,0.095057 0.78422,0.2851716 z"
         style="font-family:'Ubuntu Condensed';-inkscape-font-specification:'Ubuntu Condensed, ';fill:#ffffff;fill-opacity:1;stroke:none"
         id="path13525" />
      <path
         d="m 175.74533,8.5868908 q 0.61787,-0.2614073 1.30703,-0.4039931 0.68917,-0.1663501 1.49715,-0.1663501 1.6635,0 2.70913,1.0456291 1.04563,1.0218653 1.04563,3.2081803 v 8.269976 q -0.85551,0.237643 -1.75856,0.380229 -0.87928,0.142586 -1.73479,0.142586 -0.85552,0 -1.61597,-0.213879 -0.7367,-0.213878 -1.30704,-0.689164 -0.54658,-0.475286 -0.87928,-1.188215 -0.3327,-0.736694 -0.3327,-1.782323 0,-0.974336 0.28517,-1.687265 0.30894,-0.736693 0.83175,-1.211979 0.52282,-0.499051 1.23575,-0.736694 0.71293,-0.261407 1.54468,-0.261407 0.78422,0 1.73479,0.190114 V 12.34165 q 0,-1.378329 -0.54658,-1.924908 -0.52281,-0.5465791 -1.52091,-0.5465791 -0.54658,0 -1.04563,0.1188215 -0.47529,0.095058 -1.02187,0.3327006 z m 0.97433,8.5789122 q 0,1.093158 0.57034,1.615972 0.57035,0.522815 1.61598,0.522815 0.64163,0 1.40209,-0.16635 v -3.968638 q -0.71293,-0.190115 -1.40209,-0.190115 -0.45152,0 -0.85552,0.118822 -0.40399,0.09506 -0.71293,0.356464 -0.28517,0.237643 -0.45152,0.665401 -0.16635,0.403993 -0.16635,1.045629 z"
         style="font-family:'Ubuntu Condensed';-inkscape-font-specification:'Ubuntu Condensed, ';fill:#ffffff;fill-opacity:1;stroke:none"
         id="path13527" />
      <path
         d="m 185.86887,8.681948 q 0.87928,-0.2614073 1.90114,-0.4277574 1.02187,-0.1901144 1.87738,-0.1901144 0.92681,0 1.68727,0.2614073 0.76046,0.237643 1.28327,0.8317504 0.54658,0.5941075 0.83175,1.6159721 0.30894,0.998101 0.30894,2.495252 v 7.533283 h -2.04373 v -7.366933 q 0,-1.853616 -0.47529,-2.70913 -0.47528,-0.8555151 -1.78232,-0.8555151 -0.68917,0 -1.54468,0.2376431 v 10.693935 h -2.04373 z"
         style="font-family:'Ubuntu Condensed';-inkscape-font-specification:'Ubuntu Condensed, ';fill:#ffffff;fill-opacity:1;stroke:none"
         id="path13529" />
      <path
         d="m 197.51335,8.5868908 q 0.61787,-0.2614073 1.30703,-0.4039931 0.68917,-0.1663501 1.49715,-0.1663501 1.6635,0 2.70913,1.0456291 1.04563,1.0218653 1.04563,3.2081803 v 8.269976 q -0.85551,0.237643 -1.75856,0.380229 -0.87927,0.142586 -1.73479,0.142586 -0.85551,0 -1.61597,-0.213879 -0.7367,-0.213878 -1.30704,-0.689164 -0.54658,-0.475286 -0.87928,-1.188215 -0.3327,-0.736694 -0.3327,-1.782323 0,-0.974336 0.28517,-1.687265 0.30894,-0.736693 0.83175,-1.211979 0.52282,-0.499051 1.23575,-0.736694 0.71293,-0.261407 1.54468,-0.261407 0.78422,0 1.73479,0.190114 V 12.34165 q 0,-1.378329 -0.54658,-1.924908 -0.52281,-0.5465791 -1.52091,-0.5465791 -0.54658,0 -1.04563,0.1188215 -0.47529,0.095058 -1.02187,0.3327006 z m 0.97433,8.5789122 q 0,1.093158 0.57035,1.615972 0.57034,0.522815 1.61597,0.522815 0.64163,0 1.40209,-0.16635 v -3.968638 q -0.71293,-0.190115 -1.40209,-0.190115 -0.45152,0 -0.85552,0.118822 -0.40399,0.09506 -0.71293,0.356464 -0.28517,0.237643 -0.45152,0.665401 -0.16635,0.403993 -0.16635,1.045629 z"
         style="font-family:'Ubuntu Condensed';-inkscape-font-specification:'Ubuntu Condensed, ';fill:#ffffff;fill-opacity:1;stroke:none"
         id="path13531" />
    </g>
  </g>
</svg>
